<?xml version="1.0" encoding="UTF-8" standalone="no"?>
<svg
   version="1.1"
   id="Layer_1"
   x="0px"
   y="0px"
   width="609"
   viewBox="0 0 609 214"
   enable-background="new 0 0 914 214"
   xml:space="preserve"
   sodipodi:docname="share_tech.svg"
   inkscape:version="1.3.2 (091e20e, 2023-11-25)"
   inkscape:export-filename="share_tech.png"
   inkscape:export-xdpi="96"
   inkscape:export-ydpi="96"
   height="214"
   xmlns:inkscape="http://www.inkscape.org/namespaces/inkscape"
   xmlns:sodipodi="http://sodipodi.sourceforge.net/DTD/sodipodi-0.dtd"
   xmlns="http://www.w3.org/2000/svg"
   xmlns:svg="http://www.w3.org/2000/svg"><defs
   id="defs21" /><sodipodi:namedview
   id="namedview21"
   pagecolor="#ffffff"
   bordercolor="#000000"
   borderopacity="0.25"
   inkscape:showpageshadow="2"
   inkscape:pageopacity="0.0"
   inkscape:pagecheckerboard="0"
   inkscape:deskcolor="#d1d1d1"
   inkscape:zoom="0.52928406"
   inkscape:cx="251.28284"
   inkscape:cy="139.8115"
   inkscape:window-width="1432"
   inkscape:window-height="891"
   inkscape:window-x="0"
   inkscape:window-y="37"
   inkscape:window-maximized="1"
   inkscape:current-layer="Layer_1" />









<g
   id="g41"
   style="fill:#3465a4"
   transform="translate(-48)"><path
     fill="#242424"
     opacity="1"
     stroke="none"
     d="m 109.71718,68.62262 c 0.76702,8.469154 1.85496,16.560623 1.90134,24.65805 0.0432,7.544 -2.71129,14.32826 -9.49668,19.69594 10.75719,6.44411 11.495,16.65036 11.27939,27.22655 -0.0984,4.82736 -0.0213,9.66255 -0.26558,14.48191 -0.83501,16.47319 -7.85483,24.24262 -24.207351,25.11539 -13.424881,0.71652 -26.918449,0.14607 -40.71582,0.14607 0,-42.1537 0,-84.033253 0,-127.324708 15.417286,0.830059 30.830223,1.18755 46.130943,2.688786 7.327628,0.718952 12.469458,5.889591 15.373758,13.312012 m -12.69581,68.99649 c -0.01782,-10.65527 -2.929604,-15.78939 -10.445656,-16.41891 -7.220993,-0.6048 -14.532356,-0.13072 -21.980675,-0.13072 0,15.08164 0,29.80203 0,44.86282 7.36776,0 14.508538,0.32153 21.606827,-0.09 7.165993,-0.41546 10.631851,-4.49289 10.788712,-11.77973 0.110992,-5.15596 0.0275,-10.31607 0.03079,-16.44348 m -32.59136,-31.63346 c 6.512398,0.22591 13.077965,1.06901 19.523086,0.51388 7.258164,-0.62517 10.826615,-4.89082 11.200409,-12.277899 0.292771,-5.78595 0.076,-11.616272 -0.244484,-17.408623 -0.24562,-4.439064 -2.883445,-8.065323 -7.140861,-8.427246 -7.663933,-0.651504 -15.422989,-0.184067 -23.42057,-0.184067 0,12.302987 0,24.58104 0.08242,37.783955 z"
     id="path3"
     style="fill:#3465a4" /><path
     fill="#252525"
     opacity="1"
     stroke="none"
     d="m 149.94946,93.815132 c 12.21605,-5.666466 24.53144,-5.754547 36.83045,-2.278389 9.71516,2.745873 15.13166,10.092437 15.6054,19.821797 0.72747,14.93991 1.07743,29.9839 0.15249,44.89471 -0.94596,15.24942 -9.64068,22.8336 -25.05179,23.60677 -5.9399,0.29797 -11.99411,0.0224 -17.88625,-0.78974 -12.09692,-1.66742 -19.93637,-9.99159 -20.33348,-22.22488 -0.47488,-14.62984 -0.41275,-29.29639 0.0261,-43.92876 0.23198,-7.73427 3.37724,-14.534461 10.65704,-19.101508 m 25.1144,72.139568 c 9.52865,-1.59914 11.9795,-4.40564 11.98587,-13.78328 0.008,-12.32965 0.0679,-24.65985 -0.0295,-36.98875 -0.0531,-6.7263 -3.51945,-10.38225 -10.21901,-11.21658 -12.70701,-1.58251 -19.56942,0.8212 -21.48491,7.55183 -0.22628,0.79517 -0.40042,1.63828 -0.40162,2.45947 -0.0204,13.82824 -0.12775,27.65809 0.0549,41.48402 0.0696,5.27161 2.99025,8.84567 8.31087,9.7213 3.57527,0.58839 7.25555,0.53868 11.7834,0.77199 z"
     id="path7"
     style="fill:#3465a4" /><path
     fill="#252525"
     opacity="1"
     stroke="none"
     d="m 256.29291,165.95532 c 3.75799,2.3e-4 7.05475,2.3e-4 10.63684,2.3e-4 0,4.79552 0,9.17793 0,13.95631 -7.13205,0 -14.11318,0.42948 -21.01769,-0.11412 -7.76118,-0.61102 -13.81077,-6.87426 -14.87442,-15.21952 -0.77455,-6.07698 -0.80998,-12.26949 -0.86056,-18.41311 -0.11499,-13.96272 -0.0363,-27.92701 -0.0363,-42.41181 -3.82808,0 -7.38547,0 -11.19051,0 0,-4.943707 0,-9.366612 0,-14.336987 3.65247,0 7.20589,0 11.11212,0 0,-7.301704 0,-14.072754 0,-21.246406 5.38866,0 10.41968,0 16.01361,0 0,6.88826 0,13.785629 0,21.064407 7.14655,0 13.74645,0 20.74483,0 0,4.767235 0,9.152992 0,14.131016 -6.62308,0 -13.35062,0 -20.64525,0 0,5.84594 -1e-5,11.1261 2e-5,16.40628 7e-5,12.15582 -0.005,24.31164 0.002,36.46747 0.005,7.89715 1.58386,9.47819 10.11519,9.71624 z"
     id="path10"
     style="fill:#3465a4" /></g>









<g
   id="g45"
   style="fill:#204a87"
   transform="translate(-48)"><path
     fill="#262626"
     opacity="1"
     stroke="none"
     d="m 286.12268,104.99995 c 0,-17.298877 0,-34.097759 0,-51.628753 4.19852,0 8.13925,-0.114407 12.07129,0.02206 10.60831,0.368164 21.29938,0.150643 31.79587,1.461159 11.62188,1.451027 18.61645,9.1171 19.55398,20.663929 0.88495,10.898781 1.09287,22.020004 -0.0354,32.873525 -1.50192,14.44796 -10.94101,22.04278 -25.73816,22.47684 -6.78149,0.19892 -13.5737,0.0339 -20.84921,0.0339 0,16.58152 0,32.47204 0,48.73266 -5.69989,0 -10.91397,0 -16.79834,0 0,-24.67056 0,-49.40291 0,-74.63527 m 16.6561,-33.488075 c 0,14.9627 0,29.925395 0,45.343025 6.34988,0 12.30548,0.0189 18.26089,-0.005 8.33603,-0.0329 12.29038,-3.19453 12.7182,-11.38065 0.4603,-8.807691 0.43967,-17.675153 -0.002,-26.484891 -0.38401,-7.657044 -3.69547,-10.717698 -11.30789,-11.212471 -5.64438,-0.366867 -11.32953,-0.3191 -16.9838,-0.110756 -0.92825,0.0342 -1.79083,1.851738 -2.6853,3.850303 z"
     id="path5"
     style="fill:#204a87" /><path
     fill="#252525"
     opacity="1"
     stroke="none"
     d="m 500.56244,179.90521 c -6.42127,-0.21832 -12.44763,-0.0146 -18.33771,-0.81453 -12.28872,-1.66896 -19.95508,-9.02948 -20.55643,-21.31975 -0.75457,-15.42245 -0.68301,-30.93862 0.0681,-46.3639 0.5571,-11.441034 7.6076,-18.202295 18.93286,-20.651804 8.56793,-1.853149 17.12637,-2.03463 25.6738,0.06409 11.15063,2.737892 17.91333,9.948944 18.40271,21.253234 0.61127,14.11912 0.89831,28.30066 0.29358,42.41103 -0.6593,15.38355 -6.92719,21.80446 -22.08457,24.91757 -0.65011,0.13353 -1.29074,0.31331 -2.39236,0.50406 m 7.2984,-70.81907 c -5.12698,-7.12294 -12.61923,-5.56409 -19.64261,-5.11133 -7.68906,0.49566 -11.13916,4.21349 -11.2153,11.83073 -0.12668,12.66524 -0.12732,25.33363 0.003,37.99881 0.0739,7.18909 3.22314,10.96089 10.23797,11.90222 3.92035,0.52606 8.03376,0.52204 11.94999,-0.0278 7.05719,-0.99088 9.94711,-4.69667 9.97799,-11.99186 0.0536,-12.66629 0.0551,-25.33325 -0.0319,-37.99916 -0.0134,-1.95221 -0.6142,-3.9004 -1.27902,-6.6016 z"
     id="path6"
     style="fill:#204a87" /><path
     fill="#262626"
     opacity="1"
     stroke="none"
     d="m 654.90076,164.64452 c -3.18329,10.81277 -11.4823,14.42668 -21.04022,15.1501 -9.41175,0.71238 -18.91962,0.15544 -28.6883,0.15544 0,-4.67992 0,-9.0665 0,-13.99428 7.91071,0 15.69098,0.0106 23.47125,-0.003 8.84394,-0.0152 11.28394,-2.45076 11.3042,-11.2413 0.003,-1.49954 0.0535,-3.00148 -0.0114,-4.49826 -0.30499,-7.02857 -2.39368,-9.07001 -9.39337,-9.39822 -3.15149,-0.14779 -6.35486,-0.13384 -9.43341,-0.72269 -10.16394,-1.94422 -15.32856,-6.94161 -16.72608,-17.0767 -0.71979,-5.2199 -0.70507,-10.71343 0.0511,-15.92768 1.4566,-10.044686 7.20203,-15.725129 18.15063,-16.777863 9.5268,-0.916039 19.21143,-0.190735 29.14801,-0.190735 0,3.939018 0,8.356087 0,13.491728 -5.16455,0 -10.42535,-0.0512 -15.68457,0.0192 -3.15832,0.0423 -6.37188,-0.0492 -9.4566,0.50192 -3.93158,0.7024 -6.68457,2.91188 -6.48724,7.45096 0.0289,0.66518 0.003,1.33275 0.002,1.99921 -0.0223,10.22798 1.49469,11.83113 11.60742,12.26617 16.80182,0.72281 23.59436,7.45831 24.16919,24.4615 0.15644,4.62745 -0.5896,9.28543 -0.98211,14.33432 z"
     id="path8"
     style="fill:#204a87" /><path
     fill="#272727"
     opacity="1"
     stroke="none"
     d="m 568.45697,127.00029 c 7.9e-4,10.65391 -0.0544,20.80826 0.0242,30.96156 0.045,5.81446 1.97858,7.71591 7.80878,7.97052 2.15985,0.0943 4.32727,0.0191 6.49121,0.02 1.98773,8.7e-4 3.97546,1.9e-4 6.33374,1.9e-4 0,4.63568 0,9.02418 0,13.84725 -7.24426,0 -14.55182,0.60735 -21.71149,-0.16192 -7.99286,-0.85878 -13.48828,-7.28185 -14.32983,-16.24544 -0.72864,-7.76143 -0.64783,-15.60882 -0.71558,-23.42001 -0.10363,-11.93988 -0.0272,-23.88132 -0.0272,-36.22173 -3.84106,0 -7.26996,0 -11.04956,0 0,-4.920049 0,-9.442045 0,-14.373792 3.57153,0 6.99982,0 10.95038,0 0,-7.283951 0,-14.178192 0,-21.346863 5.59332,0 10.66034,0 16.09143,0 0,7.032478 0,13.80436 0,21.131622 7.07434,0 13.81177,0 20.849,0 0,4.96476 0,9.373963 0,14.399793 -6.85492,0 -13.56793,0 -20.71509,0 0,8.05158 0,15.49519 -6e-5,23.4388 z"
     id="path9"
     style="fill:#204a87" /><path
     fill="#272727"
     opacity="1"
     stroke="none"
     d="m 417.05536,69.004074 c 0,-5.317222 0,-10.13557 0,-15.293331 5.26394,0 10.30762,0 15.79767,0 0,2.005016 0,3.79414 0,5.583263 -3e-5,32.116097 -0.002,64.232184 8.5e-4,96.348284 7.3e-4,9.64102 0.12036,9.77032 10.18024,10.6549 0,2.16402 0,4.41176 0,6.65949 0,2.13214 0,4.26428 0,6.91943 -4.83368,0 -9.33328,0.51589 -13.66651,-0.11357 -7.66232,-1.11307 -12.27462,-7.75331 -12.28665,-16.90669 -0.0396,-30.11919 -0.0215,-60.23845 -0.0256,-90.357681 -1.2e-4,-0.998406 0,-1.996819 0,-3.494095 z"
     id="path11"
     style="fill:#204a87" /><path
     fill="#252525"
     opacity="1"
     stroke="none"
     d="m 374.3678,179.57797 c -0.35565,-30.09064 -0.35565,-59.85506 -0.35565,-89.960996 5.21966,0 10.27151,0 15.60046,0 0,30.061316 0,59.919176 0,90.287196 -5.03217,0 -9.96066,0 -15.24481,-0.3262 z"
     id="path12"
     style="fill:#204a87" /><path
     fill="#2B2B2B"
     opacity="1"
     stroke="none"
     d="m 372.96603,58.179539 c 0.0709,-1.758393 0.14191,-3.044949 0.22626,-4.573124 5.76837,0 11.31711,0 17.21469,0 0,5.388782 0,10.598022 0,16.221145 -5.56656,0 -11.24386,0 -17.44089,0 0,-3.669479 0,-7.422832 -6e-5,-11.648021 z"
     id="path13"
     style="fill:#204a87" /></g>

</svg>
